<svg width="64" height="64" viewBox="0 0 64 64" fill="none" xmlns="http://www.w3.org/2000/svg">
  <!-- HEIMDALL favicon — horn + clock mark on night-watch navy tile -->
  <rect width="64" height="64" rx="12" fill="#16203a"/>
  <g transform="translate(4 4) scale(0.875)">
    <path d="M 56.8 20.6 C 61 22, 63.3 26.5, 62 30.8 C 56.5 44.5, 44.5 54.8, 31 55.6 C 19.5 56.4, 10 50, 6.5 39.5 C 5.6 36, 6.1 32.6, 7.8 29.8 L 10.6 31.8 C 9.9 33.5, 10 35.3, 10.8 37.3 C 13.8 44.6, 21 49.3, 30.5 48.8 C 41 48, 50.2 40.6, 54.2 30.2 C 54.9 28.2, 55 26.3, 54.6 24.6 C 53.8 23.2, 54.6 21.6, 56.8 20.6 Z" fill="#e7ad33"/>
    <path d="M 54.2 33.6 L 60.8 30.8" stroke="#e7ad33" stroke-width="2.2" stroke-linecap="round" opacity="0.5"/>
    <circle cx="32" cy="22" r="15" stroke="#e7ad33" stroke-width="2" stroke-dasharray="2.8 2.2" opacity="0.45"/>
    <circle cx="32" cy="22" r="11.5" stroke="#e7ad33" stroke-width="2.5"/>
    <path d="M 32 22 L 27.4 19.3" stroke="#e7ad33" stroke-width="2.3" stroke-linecap="round"/>
    <path d="M 32 22 L 38.4 18.3" stroke="#e7ad33" stroke-width="2" stroke-linecap="round"/>
    <circle cx="32" cy="22" r="1.7" fill="#e7ad33"/>
  </g>
</svg>
