<svg width="64" height="64" viewBox="0 0 64 64" fill="none" xmlns="http://www.w3.org/2000/svg">
  <!-- HEIMDALL favicon — Gjallarhorn mark on night-watch navy tile -->
  <rect width="64" height="64" rx="12" fill="#16203a"/>
  <g fill="#e7ad33">
    <path d="M9 50 C 7 47 7.5 43.5 10 41.5 L 13.5 44.5 C 17 36 24 27.5 33 21.5 C 39.5 17.2 46.5 14.2 52.5 13 L 50 8.5 C 50 8.5 56.5 9.5 59 13.5 C 61.5 17.5 60 24 60 24 L 55.5 19.5 C 50.5 21 44.5 23.8 39 27.5 C 30.5 33.2 24 41 21 48.5 L 24.5 51.5 C 22.5 54 19 54.5 16 53 Z"/>
  </g>
  <path d="M57 30 a 12 12 0 0 0 4 -9" stroke="#e7ad33" stroke-width="2.6" stroke-linecap="round" fill="none" opacity="0.85"/>
</svg>
