<svg width="512" height="512" viewBox="0 0 512 512" fill="none" xmlns="http://www.w3.org/2000/svg">
  <!-- HEIMDALL og-image — stacked Gjallarhorn lockup, 512×512 -->
  <rect width="512" height="512" fill="#0d1426"/>
  <g transform="translate(128 96) scale(4)">
    <path d="M9 50 C 7 47 7.5 43.5 10 41.5 L 13.5 44.5 C 17 36 24 27.5 33 21.5 C 39.5 17.2 46.5 14.2 52.5 13 L 50 8.5 C 50 8.5 56.5 9.5 59 13.5 C 61.5 17.5 60 24 60 24 L 55.5 19.5 C 50.5 21 44.5 23.8 39 27.5 C 30.5 33.2 24 41 21 48.5 L 24.5 51.5 C 22.5 54 19 54.5 16 53 Z" fill="#e7ad33"/>
    <path d="M28.2 25.2 L 33.4 31.5" stroke="#e7ad33" stroke-width="2.4" stroke-linecap="round" opacity="0.45"/>
    <path d="M40.5 17.8 L 44.5 24" stroke="#e7ad33" stroke-width="2.4" stroke-linecap="round" opacity="0.45"/>
    <path d="M57 30 a 12 12 0 0 0 4 -9" stroke="#e7ad33" stroke-width="2.6" stroke-linecap="round" fill="none" opacity="0.85"/>
  </g>
  <text x="256" y="412" text-anchor="middle" font-family="Archivo Narrow, Arial Narrow, sans-serif" font-weight="700" font-size="56" letter-spacing="16" fill="#f4f6fb">HEIMDALL</text>
  <text x="256" y="452" text-anchor="middle" font-family="Inter, Arial, sans-serif" font-size="18" letter-spacing="4" fill="#a3b3d4">WATCH STAFFING · SOUND THE ALERT</text>
</svg>
